<svg xmlns="http://www.w3.org/2000/svg" xmlns:xlink="http://www.w3.org/1999/xlink" viewBox="0 0 313.58 313.57"><defs><style>.cls-1{fill:none;}.cls-2{clip-path:url(#clip-path);}.cls-3{fill:url(#linear-gradient);}.cls-4{clip-path:url(#clip-path-2);}.cls-5{fill:url(#linear-gradient-2);}.cls-6{clip-path:url(#clip-path-3);}.cls-7{fill:url(#linear-gradient-3);}.cls-8{clip-path:url(#clip-path-4);}.cls-9{fill:url(#linear-gradient-4);}.cls-10{clip-path:url(#clip-path-5);}.cls-11{fill:#ed1c24;}.cls-12{clip-path:url(#clip-path-6);}.cls-13{fill:url(#linear-gradient-5);}.cls-14{clip-path:url(#clip-path-7);}.cls-15{fill:url(#linear-gradient-6);}.cls-16{clip-path:url(#clip-path-8);}.cls-17{fill:url(#linear-gradient-7);}.cls-18{clip-path:url(#clip-path-9);}.cls-19{fill:url(#linear-gradient-8);}.cls-20{clip-path:url(#clip-path-10);}.cls-21{fill:url(#linear-gradient-9);}.cls-22{clip-path:url(#clip-path-11);}.cls-23{fill:url(#linear-gradient-10);}.cls-24{clip-path:url(#clip-path-12);}.cls-25{fill:url(#linear-gradient-11);}.cls-26{clip-path:url(#clip-path-13);}.cls-27{fill:url(#linear-gradient-12);}.cls-28{clip-path:url(#clip-path-14);}.cls-29{fill:url(#linear-gradient-13);}.cls-30{clip-path:url(#clip-path-15);}.cls-31{fill:url(#linear-gradient-14);}.cls-32{clip-path:url(#clip-path-16);}.cls-33{fill:url(#linear-gradient-15);}.cls-34{clip-path:url(#clip-path-17);}.cls-35{fill:url(#linear-gradient-16);}.cls-36{clip-path:url(#clip-path-18);}.cls-37{fill:url(#linear-gradient-17);}.cls-38{clip-path:url(#clip-path-19);}.cls-39{fill:url(#linear-gradient-18);}.cls-40{clip-path:url(#clip-path-20);}.cls-41{fill:url(#linear-gradient-19);}.cls-42{clip-path:url(#clip-path-21);}.cls-43{fill:url(#linear-gradient-20);}.cls-44{clip-path:url(#clip-path-23);}.cls-45{fill:url(#linear-gradient-22);}.cls-46{clip-path:url(#clip-path-28);}.cls-47{fill:url(#linear-gradient-27);}.cls-48{clip-path:url(#clip-path-29);}.cls-49{fill:url(#linear-gradient-28);}.cls-50{clip-path:url(#clip-path-31);}.cls-51{fill:url(#linear-gradient-30);}.cls-52{clip-path:url(#clip-path-32);}.cls-53{fill:url(#linear-gradient-31);}.cls-54{clip-path:url(#clip-path-33);}.cls-55{fill:url(#linear-gradient-32);}.cls-56{clip-path:url(#clip-path-34);}.cls-57{fill:url(#linear-gradient-33);}.cls-58{fill:#fff;}</style><clipPath id="clip-path" transform="translate(-343.21 -270.92)"><path class="cls-1" d="M497.5,280.27a146.34,146.34,0,0,0-41.62,6.7c-2.83.88-5.65,1.84-8.4,2.9a146.93,146.93,0,0,0-36.63,20.39c-2.36,1.79-4.69,3.63-6.93,5.58A147.6,147.6,0,0,0,376.62,347c-1.66,2.48-3.21,5-4.72,7.62v0a146.37,146.37,0,0,0-15.1,37.78c-.95,3.75-1.71,7.6-2.35,11.48a149,149,0,0,0-1.05,39.77,14.17,14.17,0,0,0,.16,1.46,143,143,0,0,0,4.94,24.23,1.18,1.18,0,0,0,.08.31A141.46,141.46,0,0,0,365,487.18q1.19,2.71,2.49,5.39a146.75,146.75,0,0,0,10.38,17.84c1.23,1.83,2.49,3.61,3.81,5.37a144.16,144.16,0,0,0,15.72,17.84q2.85,2.79,5.84,5.39a145.41,145.41,0,0,0,25.5,17.83c3.48,2,7.07,3.74,10.71,5.39A147,147,0,0,0,497,575.14c1,0,2,0,3.05,0s2.08,0,3.1,0a146.51,146.51,0,0,0,57.4-12.91c3.65-1.65,7.22-3.43,10.71-5.39A144.22,144.22,0,0,0,596.71,539q3-2.6,5.86-5.39a145,145,0,0,0,15.72-17.84c1.3-1.76,2.57-3.54,3.81-5.37a152.17,152.17,0,0,0,10.38-17.84c.87-1.78,1.69-3.58,2.48-5.39a141.46,141.46,0,0,0,6.45-17.55c0-.11.06-.2.09-.31a144.92,144.92,0,0,0,4.93-24.23,3.05,3.05,0,0,0,.06-.6h0a149.41,149.41,0,0,0,.94-16.76q0-7.12-.67-14.09a125,125,0,0,1-.8,12.61l0,0a1.74,1.74,0,0,1-.06.51,127.64,127.64,0,0,1-4.36,21.47,1,1,0,0,1-.08.25,127.66,127.66,0,0,1-5.7,15.55c-.7,1.6-1.43,3.18-2.21,4.75a129.31,129.31,0,0,1-9.19,15.8c-1.09,1.62-2.21,3.2-3.38,4.75a128.29,128.29,0,0,1-13.9,15.81c-1.69,1.64-3.41,3.22-5.17,4.76a129.4,129.4,0,0,1-22.58,15.77c-3.07,1.74-6.25,3.32-9.48,4.77a129.57,129.57,0,0,1-50.79,11.44c-.9,0-1.83,0-2.75,0s-1.8,0-2.68,0a130,130,0,0,1-50.89-11.44c-3.22-1.45-6.4-3-9.48-4.77a129,129,0,0,1-22.57-15.77c-1.77-1.54-3.48-3.12-5.17-4.76a128.37,128.37,0,0,1-13.91-15.81c-1.17-1.55-2.28-3.13-3.38-4.75a129.24,129.24,0,0,1-9.18-15.8c-.78-1.57-1.51-3.15-2.21-4.75a126,126,0,0,1-5.7-15.55.72.72,0,0,1-.08-.25,127.65,127.65,0,0,1-4.37-21.47c-.07-.43-.1-.85-.15-1.28a131.55,131.55,0,0,1,.94-35.2c.57-3.44,1.25-6.83,2.09-10.16a128.88,128.88,0,0,1,13.36-33.44v0c1.32-2.3,2.7-4.55,4.16-6.74a130.66,130.66,0,0,1,24.18-27.53c2-1.72,4-3.36,6.13-4.95a129.28,129.28,0,0,1,32.42-18c2.43-.94,4.92-1.79,7.44-2.57A129.84,129.84,0,0,1,514,280.9c-2.51-.25-5.05-.41-7.6-.52-2.12-.09-4.23-.14-6.36-.14-.86,0-1.68,0-2.51,0"/></clipPath><linearGradient id="linear-gradient" y1="1000" x2="1" y2="1000" gradientTransform="matrix(436.59, 0, 0, -436.59, 345.46, 437013.31)" gradientUnits="userSpaceOnUse"><stop offset="0" stop-color="#07924d"/><stop offset="0.17" stop-color="#32a636"/><stop offset="0.51" stop-color="#97d300"/><stop offset="1" stop-color="#97d300"/></linearGradient><clipPath id="clip-path-2" transform="translate(-343.21 -270.92)"><polygon class="cls-1" points="466.75 444.6 466.75 444.94 467.09 444.6 466.75 444.6"/></clipPath><linearGradient id="linear-gradient-2" y1="1000" y2="1000" gradientTransform="matrix(436.59, 0.02, 0.02, -436.59, 307.71, 437030.36)" xlink:href="#linear-gradient"/><clipPath id="clip-path-3" transform="translate(-343.21 -270.92)"><path class="cls-1" d="M624.8,444.53a8,8,0,0,0-.29.91c.14-.3.24-.61.35-.91Z"/></clipPath><linearGradient id="linear-gradient-3" y1="1000" y2="1000" gradientTransform="matrix(436.59, -0.01, -0.01, -436.59, 491.65, 437030.59)" xlink:href="#linear-gradient"/><clipPath id="clip-path-4" transform="translate(-343.21 -270.92)"><polygon class="cls-1" points="628.85 424.86 628.86 424.84 580.31 419.76 628.85 424.86"/></clipPath><linearGradient id="linear-gradient-4" y1="1000" y2="1000" gradientTransform="matrix(436.59, 0, 0, -436.59, 439.19, 437007.91)" xlink:href="#linear-gradient"/><clipPath id="clip-path-5" transform="translate(-343.21 -270.92)"><rect class="cls-1" width="1000" height="1000"/></clipPath><clipPath id="clip-path-6" transform="translate(-343.21 -270.92)"><path class="cls-1" d="M566,409.35l-5.05,1.27c.29,4.06.22,3.09.51,7.16l6.37.67,12.5,1.31,48.55,5.08a116.45,116.45,0,0,0-.66-31.11Z"/></clipPath><linearGradient id="linear-gradient-5" y1="1000" x2="1" y2="1000" gradientTransform="matrix(218.19, 0, 0, -218.19, 576.87, 218600.65)" gradientUnits="userSpaceOnUse"><stop offset="0" stop-color="#f9bd20"/><stop offset="0.09" stop-color="#f9c81e"/><stop offset="0.26" stop-color="#fad51b"/><stop offset="0.48" stop-color="#fadc19"/><stop offset="1" stop-color="#fade19"/></linearGradient><clipPath id="clip-path-7" transform="translate(-343.21 -270.92)"><path class="cls-1" d="M398.79,411.73a114,114,0,0,0,.68,12.45l60.4-5.95,7.14-.7c.31-4.06.23-3.09.55-7.15l-5.75-1.49L400.3,393.05a114.86,114.86,0,0,0-1.51,18.68"/></clipPath><linearGradient id="linear-gradient-6" y1="1000" y2="1000" gradientTransform="matrix(218.19, 0, 0, -218.19, 415.23, 218599.98)" xlink:href="#linear-gradient-5"/><clipPath id="clip-path-8" transform="translate(-343.21 -270.92)"><path class="cls-1" d="M402.13,384.07l63.16,16.13,4.67,1.19,3-6.54-3.06-2.09L414,354.5a114.75,114.75,0,0,0-11.82,29.57"/></clipPath><linearGradient id="linear-gradient-7" y1="1000" y2="1000" gradientTransform="matrix(218.19, 0, 0, -218.19, 388.9, 218569.39)" xlink:href="#linear-gradient-5"/><clipPath id="clip-path-9" transform="translate(-343.21 -270.92)"><path class="cls-1" d="M417.63,348.52l57.66,37.84,2.32,1.52,4.92-5.22-1.16-1.57L439,324.17a115.51,115.51,0,0,0-21.38,24.35"/></clipPath><linearGradient id="linear-gradient-8" y1="1000" y2="1000" gradientTransform="matrix(218.19, 0, 0, -218.19, 379.43, 218547.46)" xlink:href="#linear-gradient-5"/><clipPath id="clip-path-10" transform="translate(-343.21 -270.92)"><path class="cls-1" d="M444.43,319.8l.17.21,43.87,56.6.76,1,6.35-3.34-.22-.69-21.71-68-.56-1.71a114.61,114.61,0,0,0-28.66,15.95"/></clipPath><linearGradient id="linear-gradient-9" y1="1000" y2="1000" gradientTransform="matrix(218.19, 0, 0, -218.19, 383.83, 218532.12)" xlink:href="#linear-gradient-5"/><clipPath id="clip-path-11" transform="translate(-343.21 -270.92)"><path class="cls-1" d="M479.67,301.57l.65,1.91,23.13,67.85.1.3,7.09-1.1v-.1l1.54-71.59.07-2.51a114.5,114.5,0,0,0-32.58,5.24"/></clipPath><linearGradient id="linear-gradient-10" y1="1000" y2="1000" gradientTransform="matrix(218.19, 0, 0, -218.19, 402.83, 218525.03)" xlink:href="#linear-gradient-5"/><clipPath id="clip-path-12" transform="translate(-343.21 -270.92)"><path class="cls-1" d="M519.18,298.93,519,370.59h0l7.06,1.26,0-.11,24.79-67.41.66-1.82a115.09,115.09,0,0,0-32.42-6.09Z"/></clipPath><linearGradient id="linear-gradient-11" y1="1000" y2="1000" gradientTransform="matrix(218.19, 0, 0, -218.19, 442.15, 218525.26)" xlink:href="#linear-gradient-5"/><clipPath id="clip-path-13" transform="translate(-343.21 -270.92)"><path class="cls-1" d="M557.55,306.56l-23.39,67.72-.15.42,6.27,3.49.55-.67,45.41-55.81.06-.08A114,114,0,0,0,558.1,305Z"/></clipPath><linearGradient id="linear-gradient-12" y1="1000" y2="1000" gradientTransform="matrix(218.19, 0, 0, -218.19, 474.12, 218532.99)" xlink:href="#linear-gradient-5"/><clipPath id="clip-path-14" transform="translate(-343.21 -270.92)"><path class="cls-1" d="M547.76,382.25l-.91,1.16,4.8,5.34,1.88-1.17L612.33,351a115.4,115.4,0,0,0-20.71-24.82Z"/></clipPath><linearGradient id="linear-gradient-13" y1="1000" y2="1000" gradientTransform="matrix(218.19, 0, 0, -218.19, 509.34, 218548.88)" xlink:href="#linear-gradient-5"/><clipPath id="clip-path-15" transform="translate(-343.21 -270.92)"><path class="cls-1" d="M558.77,394.15l-2.63,1.7,2.81,6.61,4-.93,63.9-14.73a114.14,114.14,0,0,0-11-29.77Z"/></clipPath><linearGradient id="linear-gradient-14" y1="1000" y2="1000" gradientTransform="matrix(218.19, 0, 0, -218.19, 543.48, 218571.19)" xlink:href="#linear-gradient-5"/><clipPath id="clip-path-16" transform="translate(-343.21 -270.92)"><path class="cls-1" d="M421.62,480.64a113.54,113.54,0,0,0,12.3,14h23.95v-14Z"/></clipPath><linearGradient id="linear-gradient-15" y1="1000" y2="1000" gradientTransform="matrix(436.59, 0, 0, -436.59, 346.86, 437073.23)" xlink:href="#linear-gradient"/><clipPath id="clip-path-17" transform="translate(-343.21 -270.92)"><path class="cls-1" d="M438.5,498.82a113.69,113.69,0,0,0,19.95,14h34v-14Z"/></clipPath><linearGradient id="linear-gradient-16" y1="1000" y2="1000" gradientTransform="matrix(436.59, 0, 0, -436.59, 390.02, 437091.4)" xlink:href="#linear-gradient"/><clipPath id="clip-path-18" transform="translate(-343.21 -270.92)"><rect class="cls-1" x="496.65" y="498.81" width="30.37" height="13.97"/></clipPath><linearGradient id="linear-gradient-17" y1="1000" y2="1000" gradientTransform="matrix(436.59, 0, 0, -436.59, 434.39, 437091.4)" xlink:href="#linear-gradient"/><clipPath id="clip-path-19" transform="translate(-343.21 -270.92)"><path class="cls-1" d="M531.21,498.82v14h38.73a113.69,113.69,0,0,0,19.95-14Z"/></clipPath><linearGradient id="linear-gradient-18" y1="1000" y2="1000" gradientTransform="matrix(436.59, 0, 0, -436.59, 482.02, 437091.18)" xlink:href="#linear-gradient"/><clipPath id="clip-path-20" transform="translate(-343.21 -270.92)"><path class="cls-1" d="M565.79,480.64v14h28.68a113.54,113.54,0,0,0,12.3-14Z"/></clipPath><linearGradient id="linear-gradient-19" y1="1000" y2="1000" gradientTransform="matrix(436.59, 0, 0, -436.59, 489.52, 437073.01)" xlink:href="#linear-gradient"/><clipPath id="clip-path-21" transform="translate(-343.21 -270.92)"><path class="cls-1" d="M609.76,476.44h.11a114.62,114.62,0,0,0,8-14,116.71,116.71,0,0,1-8.1,14"/></clipPath><linearGradient id="linear-gradient-20" y1="1000" y2="1000" gradientTransform="matrix(436.59, 0, 0, -436.59, 498.43, 437055.06)" xlink:href="#linear-gradient"/><clipPath id="clip-path-23" transform="translate(-343.21 -270.92)"><path class="cls-1" d="M465.29,517a115.47,115.47,0,0,0,97.13,0Z"/></clipPath><linearGradient id="linear-gradient-22" y1="1000" y2="1000" gradientTransform="matrix(436.59, 0, 0, -436.59, 453.56, 437107.77)" xlink:href="#linear-gradient"/><clipPath id="clip-path-28" transform="translate(-343.21 -270.92)"><rect class="cls-1" x="463.31" y="480.64" width="98.29" height="13.98"/></clipPath><linearGradient id="linear-gradient-27" y1="1000" y2="1000" gradientTransform="matrix(436.59, 0, 0, -436.59, 417.83, 437073.23)" xlink:href="#linear-gradient"/><clipPath id="clip-path-29" transform="translate(-343.21 -270.92)"><path class="cls-1" d="M539.14,444.53a22.18,22.18,0,0,0-16.46,7.24c-1.1,1.24-2.16,2.53-3.16,3.88l0,0a5.31,5.31,0,0,1-8.55,0c-.43-.54-.83-1.1-1.28-1.65-.61-.76-1.29-1.53-1.94-2.27a22.17,22.17,0,0,0-16.44-7.24H403.51a111.77,111.77,0,0,0,5.06,13.74H618.82a98.72,98.72,0,0,0,5.67-12.71s0-.05,0-.07v-.05c.14-.3.24-.61.35-.91Z"/></clipPath><linearGradient id="linear-gradient-28" y1="1000" y2="1000" gradientTransform="matrix(436.59, 0, 0, -436.59, 382.48, 437036.93)" xlink:href="#linear-gradient"/><clipPath id="clip-path-31" transform="translate(-343.21 -270.92)"><path class="cls-1" d="M539.14,444.53a22.18,22.18,0,0,0-16.46,7.24c-1.1,1.24-2.16,2.53-3.16,3.88l0,0a5.31,5.31,0,0,1-8.55,0c-.43-.54-.83-1.1-1.28-1.65-.61-.76-1.29-1.53-1.94-2.27a22.17,22.17,0,0,0-16.44-7.24H403.51a111.77,111.77,0,0,0,5.06,13.74H618.82a98.72,98.72,0,0,0,5.67-12.71s0-.05,0-.07v-.05a8,8,0,0,1,.29-.91Z"/></clipPath><linearGradient id="linear-gradient-30" y1="1000" y2="1000" gradientTransform="matrix(436.59, 0, 0, -436.59, 383.14, 437036.93)" xlink:href="#linear-gradient"/><clipPath id="clip-path-32" transform="translate(-343.21 -270.92)"><path class="cls-1" d="M409.85,462.47a114.62,114.62,0,0,0,8,14h61.83v-14Z"/></clipPath><linearGradient id="linear-gradient-31" y1="1000" y2="1000" gradientTransform="matrix(436.59, 0, 0, -436.59, 333.75, 437055.05)" xlink:href="#linear-gradient"/><clipPath id="clip-path-33" transform="translate(-343.21 -270.92)"><path class="cls-1" d="M532.28,462.47v14h77.48a116.71,116.71,0,0,0,8.1-14Z"/></clipPath><linearGradient id="linear-gradient-32" y1="1000" y2="1000" gradientTransform="matrix(436.59, 0, 0, -436.59, 459.22, 437054.83)" xlink:href="#linear-gradient"/><clipPath id="clip-path-34" transform="translate(-343.21 -270.92)"><rect class="cls-1" x="484.97" y="462.47" width="42.05" height="13.98"/></clipPath><linearGradient id="linear-gradient-33" y1="1000" y2="1000" gradientTransform="matrix(436.59, 0, 0, -436.59, 393.33, 437055.05)" xlink:href="#linear-gradient"/></defs><g id="Layer_2" data-name="Layer 2"><g id="Layer_1-2" data-name="Layer 1"><g class="cls-2"><rect class="cls-3" x="347.95" y="275.65" width="304.11" height="304.11" transform="translate(-286.52 643.01) rotate(-88.19)"/></g><g class="cls-4"><rect class="cls-5" x="466.74" y="444.59" width="0.36" height="0.35" transform="translate(-335.59 626.49) rotate(-88.19)"/></g><g class="cls-6"><rect class="cls-7" x="624.22" y="444.8" width="0.93" height="0.38" transform="translate(-183.06 784.35) rotate(-88.19)"/></g><g class="cls-8"><rect class="cls-9" x="601.27" y="397.96" width="6.63" height="48.69" transform="translate(-179.84 742.31) rotate(-88.19)"/></g><g class="cls-10"><path class="cls-11" d="M532.65,425.31a14.64,14.64,0,0,0-10.87,4.81,53.4,53.4,0,0,0-4,5,4.15,4.15,0,0,1-6.78,0,50.39,50.39,0,0,0-4-5,14.62,14.62,0,0,0-10.83-4.81H399.59a108.77,108.77,0,0,0,2.64,14.4h89a27.12,27.12,0,0,1,20,8.83c.72.82,1.46,1.66,2.1,2.48.28.32.57.69.84,1.06l.48.63c.14.17.26.33.5.33a.43.43,0,0,0,.4-.22l.24-.31,0-.05c1-1.3,2-2.58,3.21-3.9a27.11,27.11,0,0,1,20-8.85h87a110.44,110.44,0,0,0,2.65-14.4Z" transform="translate(-343.21 -270.92)"/></g><g class="cls-12"><rect class="cls-13" x="579.42" y="374.82" width="31.69" height="68.93" transform="translate(-162.24 730.16) rotate(-89.52)"/></g><g class="cls-14"><rect class="cls-15" x="417.32" y="374.1" width="31.71" height="69.03" transform="translate(-322.29 567.4) rotate(-89.52)"/></g><g class="cls-16"><rect class="cls-17" x="413.78" y="342.36" width="47.49" height="71.18" transform="translate(-287.31 541.35) rotate(-89.52)"/></g><g class="cls-18"><rect class="cls-19" x="417.95" y="323.31" width="64.26" height="65.43" transform="translate(-252.94 532.17) rotate(-89.52)"/></g><g class="cls-20"><rect class="cls-21" x="432.92" y="314.83" width="74.17" height="51.77" transform="translate(-217.88 536.91) rotate(-89.52)"/></g><g class="cls-22"><rect class="cls-23" x="458.17" y="317.37" width="75.57" height="33.21" transform="translate(-185.4 556.18) rotate(-89.52)"/></g><g class="cls-24"><rect class="cls-25" x="497.47" y="317.54" width="75.7" height="33.2" transform="translate(-146.53 595.7) rotate(-89.52)"/></g><g class="cls-26"><rect class="cls-27" x="523.33" y="315.13" width="73.66" height="52.9" transform="translate(-129.35 627.92) rotate(-89.52)"/></g><g class="cls-28"><rect class="cls-29" x="548.01" y="324.45" width="63.15" height="66" transform="translate(-125.95 663.08) rotate(-89.52)"/></g><g class="cls-30"><rect class="cls-31" x="568.5" y="344.18" width="46.03" height="71.13" transform="translate(-136.42 697.11) rotate(-89.52)"/></g><g class="cls-32"><rect class="cls-33" x="432.19" y="469.29" width="15.12" height="36.67" transform="translate(-404.76 640.81) rotate(-88.19)"/></g><g class="cls-34"><rect class="cls-35" x="457.64" y="478.62" width="15.66" height="54.36" transform="translate(-398.01 684.12) rotate(-88.19)"/></g><g class="cls-36"><rect class="cls-37" x="504.37" y="490.4" width="14.93" height="30.8" transform="translate(-353.11 730.46) rotate(-88.19)"/></g><g class="cls-38"><rect class="cls-39" x="552.65" y="476.26" width="15.81" height="59.09" transform="translate(-305.94 779.15) rotate(-88.19)"/></g><g class="cls-40"><rect class="cls-41" x="578.65" y="466.93" width="15.26" height="41.39" transform="translate(-262.86 787.27) rotate(-88.19)"/></g><g class="cls-42"><rect class="cls-43" x="606.7" y="465.18" width="14.23" height="8.55" transform="translate(-218.04 797.19) rotate(-88.19)"/></g><g class="cls-32"><rect class="cls-33" x="432.19" y="469.29" width="15.12" height="36.67" transform="translate(-404.76 640.81) rotate(-88.19)"/></g><g class="cls-44"><rect class="cls-45" x="506.97" y="473.62" width="13.77" height="97.43" transform="translate(-367.68 748.49) rotate(-88.19)"/></g><g class="cls-40"><rect class="cls-41" x="578.65" y="466.93" width="15.26" height="41.39" transform="translate(-262.86 787.27) rotate(-88.19)"/></g><g class="cls-34"><rect class="cls-35" x="457.64" y="478.62" width="15.66" height="54.36" transform="translate(-398.01 684.12) rotate(-88.19)"/></g><g class="cls-36"><rect class="cls-37" x="504.37" y="490.4" width="14.93" height="30.8" transform="translate(-353.11 730.46) rotate(-88.19)"/></g><g class="cls-38"><rect class="cls-39" x="552.65" y="476.26" width="15.81" height="59.09" transform="translate(-305.94 779.15) rotate(-88.19)"/></g><g class="cls-46"><rect class="cls-47" x="503.91" y="438.28" width="17.08" height="98.69" transform="translate(-334.35 713.48) rotate(-88.19)"/></g><g class="cls-48"><rect class="cls-49" x="503.67" y="340.71" width="21.04" height="221.68" transform="translate(-296.61 680.28) rotate(-88.19)"/></g><g class="cls-48"><rect class="cls-49" x="503.67" y="340.71" width="21.04" height="221.68" transform="translate(-296.61 680.28) rotate(-88.19)"/></g><g class="cls-50"><rect class="cls-51" x="503.64" y="340.74" width="21.03" height="221.62" transform="translate(-296.65 680.24) rotate(-88.19)"/></g><g class="cls-52"><rect class="cls-53" x="436.67" y="434.34" width="16.18" height="70.23" transform="translate(-381.74 628.22) rotate(-88.19)"/></g><g class="cls-54"><rect class="cls-55" x="566.73" y="426.46" width="16.68" height="85.99" transform="matrix(0.03, -1, 1, 0.03, -255.55, 758.47)"/></g><g class="cls-56"><rect class="cls-57" x="498.35" y="448.22" width="15.3" height="42.47" transform="translate(-322.44 689.43) rotate(-88.19)"/></g><path class="cls-58" d="M358.5,425.67a1.42,1.42,0,0,1,1.46-1.36,1.35,1.35,0,0,1,1,.45,1.39,1.39,0,0,1,.38,1,1.43,1.43,0,0,1-.45,1,1.41,1.41,0,0,1-2.37-1.08Zm.12-3.3a1.41,1.41,0,0,1,2.81.1,1.35,1.35,0,0,1-.45,1,1.39,1.39,0,0,1-1,.38,1.43,1.43,0,0,1-1-.45,1.37,1.37,0,0,1-.37-1Zm8.36,8.85V431a3.69,3.69,0,0,1-.77,0,3.51,3.51,0,0,1-3.07-1.6,8.42,8.42,0,0,1-.84-4.64l0-1a9,9,0,0,1,.7-3.31,5.08,5.08,0,0,1,1.87-2.28,5.2,5.2,0,0,1,3.08-.75,10.47,10.47,0,0,1,2.92.58l-.09,2.34a10.52,10.52,0,0,0-2.4-.45,3.31,3.31,0,0,0-2.65.91,4.56,4.56,0,0,0-1,3.05l0,1a12.93,12.93,0,0,0,.07,2.22,1.81,1.81,0,0,0,.47,1.08,1.52,1.52,0,0,0,1,.34,1.1,1.1,0,0,0,.76-.23,2,2,0,0,0,.53-1l.21-.8c.09-.28.25-.89.5-1.83l2.25.56c-.44,1.69-.72,2.91-.86,3.64a21,21,0,0,0-.27,2.43Z" transform="translate(-343.21 -270.92)"/><path class="cls-58" d="M368.36,430.35a1.13,1.13,0,0,1,.9.34,1.32,1.32,0,0,1,.38.94l.12,3.32-2.45.09-.12-3.32a1.34,1.34,0,0,1,.31-1,1.15,1.15,0,0,1,.86-.4Z" transform="translate(-343.21 -270.92)"/><path class="cls-58" d="M368.46,433.84a1.14,1.14,0,0,1,.9.31,1.38,1.38,0,0,1,.41.93l.21,3.32-2.45.15-.21-3.31a1.33,1.33,0,0,1,.29-1,1.11,1.11,0,0,1,.85-.43Z" transform="translate(-343.21 -270.92)"/><path class="cls-58" d="M371.12,443.62a2.77,2.77,0,0,0-.4,2.08l-2.44.26c-.19-1.74.17-3,1.07-3.7a4.11,4.11,0,0,1-1.23-1.38,5.15,5.15,0,0,1-.6-2,1.33,1.33,0,0,1,.26-1,1.22,1.22,0,0,1,.85-.48,1.11,1.11,0,0,1,.9.27,1.41,1.41,0,0,1,.43.93,2.1,2.1,0,0,0,.69,1.42,2,2,0,0,0,1.64.41l3.37-.36.26,2.49-3.36.36a2.1,2.1,0,0,0-1.44.69Zm6.15-2.49a1.36,1.36,0,0,1,.31-1,1.4,1.4,0,0,1,.94-.52,1.37,1.37,0,0,1,1,.31,1.34,1.34,0,0,1,.52.95,1.37,1.37,0,0,1-.3,1,1.4,1.4,0,0,1-2,.21,1.32,1.32,0,0,1-.52-.94Z" transform="translate(-343.21 -270.92)"/><path class="cls-58" d="M378.71,452.84a6,6,0,0,1-.1,2.89,5.09,5.09,0,0,1-1.38,2.34,4.54,4.54,0,0,1-2.35,1.23l-4,.79-2.67-13.47a1.36,1.36,0,0,1,.16-1,1.15,1.15,0,0,1,.79-.54,1.13,1.13,0,0,1,.93.2,1.32,1.32,0,0,1,.53.87l.17.84,9.53-1.88.49,2.44-5.43,1.05a4.66,4.66,0,0,1,2.17,1.54,6.29,6.29,0,0,1,1.16,2.7Zm-4.32,4a2.25,2.25,0,0,0,1.62-1.17,3.36,3.36,0,0,0,.24-2.35,5.48,5.48,0,0,0-.94-2.17,4.46,4.46,0,0,0-1.72-1.46,3.58,3.58,0,0,0-2.19-.3l-.13,0,1.53,7.74Z" transform="translate(-343.21 -270.92)"/><path class="cls-58" d="M374.75,472.69l-.53-1.68a4.7,4.7,0,0,1-3.38-.57,5.11,5.11,0,0,1-2-2.92,12.48,12.48,0,0,1-.46-2.21l2.31-.72a15.72,15.72,0,0,0,.41,1.84,3.57,3.57,0,0,0,.92,1.62,2,2,0,0,0,1.43.52l-.2-.67a7.4,7.4,0,0,1-.37-3.27,4.11,4.11,0,0,1,1-2.25,4.38,4.38,0,0,1,1.93-1.21,4.5,4.5,0,0,1,2.33-.1,4.29,4.29,0,0,1,2.18,1.29,7,7,0,0,1,1.57,2.88l1,3.15-6.3,2,.5,1.6Zm1.83-9.22a1.78,1.78,0,0,0-1.16,1.17,4.14,4.14,0,0,0,.19,2.56l.25.8,3.91-1.22-.26-.83a4.06,4.06,0,0,0-1.3-2.19,1.8,1.8,0,0,0-1.63-.29Z" transform="translate(-343.21 -270.92)"/><path class="cls-58" d="M375.69,471.4a1.12,1.12,0,0,1,.95,0,1.35,1.35,0,0,1,.67.77l1.18,3.11-2.3.87L375,473.07a1.36,1.36,0,0,1,0-1,1.13,1.13,0,0,1,.69-.66Z" transform="translate(-343.21 -270.92)"/><path class="cls-58" d="M376.89,474.66a1.19,1.19,0,0,1,1,0,1.33,1.33,0,0,1,.68.75l1.26,3.07-2.27.94-1.26-3.08a1.32,1.32,0,0,1,0-1,1.13,1.13,0,0,1,.67-.68Z" transform="translate(-343.21 -270.92)"/><path class="cls-58" d="M389.55,476.52l1,2.28-11.08,5-1.9-4.17a1.35,1.35,0,0,1-.07-1,1.16,1.16,0,0,1,.64-.7,1.15,1.15,0,0,1,1,0,1.35,1.35,0,0,1,.71.72l.86,1.89Z" transform="translate(-343.21 -270.92)"/><rect class="cls-58" x="380.3" y="482.79" width="12.17" height="2.51" transform="translate(-519.4 -45.92) rotate(-26.68)"/><path class="cls-58" d="M389.64,497.36c.25.42.5.85.74,1.3l-1.91,1.17c-.25-.44-.43-.76-.54-.93a14.26,14.26,0,0,0-1.73-2.3,21.83,21.83,0,0,0-2.5-2.26l1.46-1.65,1,.71a2.77,2.77,0,0,1,1.54-2.59,3.66,3.66,0,0,1,2.11-.59,4,4,0,0,1,2,.66,4.93,4.93,0,0,1,1.58,1.63,5.79,5.79,0,0,1,.84,2.7l-2.36.06a3.51,3.51,0,0,0-.5-1.58,2.22,2.22,0,0,0-1.25-1,1.85,1.85,0,0,0-1.55.23,1.32,1.32,0,0,0-.72,1.11,2.68,2.68,0,0,0,.45,1.44l.23.34a16.62,16.62,0,0,1,1.11,1.58Z" transform="translate(-343.21 -270.92)"/><polygon class="cls-58" points="51.11 233.06 49.1 234.47 46.48 230.74 56.44 223.75 57.88 225.8 49.92 231.38 51.11 233.06"/><path class="cls-58" d="M392.65,503.74a1.14,1.14,0,0,1,.92-.23,1.33,1.33,0,0,1,.85.56l2,2.67-2,1.46-2-2.67a1.33,1.33,0,0,1-.29-1,1.13,1.13,0,0,1,.49-.82Z" transform="translate(-343.21 -270.92)"/><path class="cls-58" d="M394.68,506.53a1.15,1.15,0,0,1,.92-.26,1.35,1.35,0,0,1,.87.53l2.07,2.6-1.92,1.53-2.07-2.6a1.32,1.32,0,0,1-.32-1,1.11,1.11,0,0,1,.45-.84Z" transform="translate(-343.21 -270.92)"/><path class="cls-58" d="M396.8,509.24a1.15,1.15,0,0,1,.92-.27,1.38,1.38,0,0,1,.88.5l2.13,2.54-1.88,1.58-2.13-2.54a1.33,1.33,0,0,1-.35-.95,1.18,1.18,0,0,1,.43-.86Z" transform="translate(-343.21 -270.92)"/><path class="cls-58" d="M399,511.93a1.15,1.15,0,0,1,.91-.3,1.3,1.3,0,0,1,.89.48l2.21,2.48-1.84,1.63-2.2-2.48a1.33,1.33,0,0,1-.37-1,1.12,1.12,0,0,1,.4-.86Z" transform="translate(-343.21 -270.92)"/><path class="cls-58" d="M407.11,518a2.79,2.79,0,0,0,1,1.89l-1.77,1.7c-1.22-1.26-1.7-2.46-1.43-3.58a3.92,3.92,0,0,1-1.82-.33,5.47,5.47,0,0,1-1.71-1.22,1.33,1.33,0,0,1-.39-.94,1.16,1.16,0,0,1,.38-.89,1.09,1.09,0,0,1,.87-.34,1.36,1.36,0,0,1,.91.46,2.14,2.14,0,0,0,1.42.71,2.08,2.08,0,0,0,1.55-.69l2.43-2.35,1.74,1.8-2.43,2.35a2.17,2.17,0,0,0-.72,1.43Zm3.33-5.74a1.4,1.4,0,0,1-.4-1,1.37,1.37,0,0,1,.43-1,1.41,1.41,0,0,1,2,0,1.4,1.4,0,0,1,0,2,1.33,1.33,0,0,1-1,.39,1.36,1.36,0,0,1-1-.42Z" transform="translate(-343.21 -270.92)"/><path class="cls-58" d="M406.19,527.33a1.41,1.41,0,0,1-.08-2,1.31,1.31,0,0,1,1-.45,1.34,1.34,0,0,1,1,.37,1.41,1.41,0,0,1,.08,2,1.41,1.41,0,0,1-1,.45,1.38,1.38,0,0,1-1-.37Zm6.25-4.23a2.77,2.77,0,0,0,1.08,1.82l-1.67,1.81c-1.29-1.19-1.84-2.36-1.63-3.49a4.05,4.05,0,0,1-1.84-.23,5.4,5.4,0,0,1-1.78-1.12,1.34,1.34,0,0,1-.44-.91,1.16,1.16,0,0,1,.32-.92,1.09,1.09,0,0,1,.86-.38,1.36,1.36,0,0,1,.93.4,2.09,2.09,0,0,0,1.46.63,2.06,2.06,0,0,0,1.5-.78l2.3-2.49,1.84,1.7-2.29,2.49a2.12,2.12,0,0,0-.64,1.47Z" transform="translate(-343.21 -270.92)"/><path class="cls-58" d="M421.52,518.92l1.93,1.61-7.78,9.36L412.15,527a1.38,1.38,0,0,1-.52-.88,1.17,1.17,0,0,1,.28-.92,1.14,1.14,0,0,1,.85-.43,1.3,1.3,0,0,1,.95.34l1.6,1.33Z" transform="translate(-343.21 -270.92)"/><rect class="cls-58" x="415.88" y="525.83" width="12.17" height="2.51" transform="translate(-596.27 270.49) rotate(-52.54)"/><path class="cls-58" d="M434,537a2,2,0,0,0-.36,1.66,2.1,2.1,0,0,0,1,1.24L433.27,542a5,5,0,0,1-1.86-1.91,3.65,3.65,0,0,1-.37-2.37,3.27,3.27,0,0,1-3.91,0,3.4,3.4,0,0,1-1.25-1.38,3.6,3.6,0,0,1-.38-1.93,4.25,4.25,0,0,1,.67-2,4.52,4.52,0,0,1,4.5-2.16,6.5,6.5,0,0,1,2.68,1,7.44,7.44,0,0,1,.88.63l.41-.65,2.12,1.34L434,537Zm-5-1a2,2,0,0,0,1.78.22,3.26,3.26,0,0,0,1.61-1.44l.6-1a6.67,6.67,0,0,0-.78-.59,3.58,3.58,0,0,0-2.23-.63,2.11,2.11,0,0,0-1.67,1,1.46,1.46,0,0,0-.21,1.29,2,2,0,0,0,.9,1.06Zm3.67-7.21a1.41,1.41,0,0,1-.45-2,1.4,1.4,0,0,1,.88-.62,1.36,1.36,0,0,1,1.06.18,1.38,1.38,0,0,1,.63.88,1.32,1.32,0,0,1-.18,1.06,1.36,1.36,0,0,1-.88.63,1.4,1.4,0,0,1-1.06-.18Zm2.8,1.75a1.36,1.36,0,0,1-.63-.88,1.32,1.32,0,0,1,.18-1.06,1.34,1.34,0,0,1,.88-.62,1.32,1.32,0,0,1,1.06.18,1.4,1.4,0,0,1,.45,1.94,1.33,1.33,0,0,1-.88.62,1.32,1.32,0,0,1-1.06-.18Z" transform="translate(-343.21 -270.92)"/><path class="cls-58" d="M433.15,540.39a1.17,1.17,0,0,1,.75-.59,1.41,1.41,0,0,1,1,.15l2.91,1.59-1.17,2.15-2.92-1.58a1.37,1.37,0,0,1-.67-.76,1.16,1.16,0,0,1,.09-1Z" transform="translate(-343.21 -270.92)"/><path class="cls-58" d="M436.19,542.08a1.16,1.16,0,0,1,.73-.61,1.39,1.39,0,0,1,1,.12l3,1.51-1.11,2.18-3-1.5a1.31,1.31,0,0,1-.69-.74,1.16,1.16,0,0,1,.06-1Z" transform="translate(-343.21 -270.92)"/><path class="cls-58" d="M446.74,539.26a6.58,6.58,0,0,1,2.87,3.3,5.71,5.71,0,0,1-.4,4.32l-1,2.25-8.14-3.6a1.17,1.17,0,0,1-.68-.7,1.25,1.25,0,0,1,0-.93,1.22,1.22,0,0,1,.65-.65,1.19,1.19,0,0,1,1,0l5.84,2.58a3.28,3.28,0,0,0,0-3.29,7.25,7.25,0,0,0-3.26-2.41l.8-3.06a15.26,15.26,0,0,1,4.08-.38,23.21,23.21,0,0,1,4.7.8l-.65,2.4a16.89,16.89,0,0,0-3-.62,14.18,14.18,0,0,0-2.82,0Z" transform="translate(-343.21 -270.92)"/><path class="cls-58" d="M457.05,549.76l-.84,2.31-1.62-.59a4,4,0,0,1-1.66,2.25,2.88,2.88,0,0,1-2.45.09,7,7,0,0,1-1.85-1.06l1.19-1.86a6.26,6.26,0,0,0,1.06.58,1,1,0,0,0,.8,0,1.62,1.62,0,0,0,.55-.85l2.71-7.48,2.36.85-1.87,5.18Z" transform="translate(-343.21 -270.92)"/><path class="cls-58" d="M455.59,550.55a1.18,1.18,0,0,1,.63-.73,1.34,1.34,0,0,1,1,0l3.17,1-.74,2.34-3.17-1a1.31,1.31,0,0,1-.8-.62,1.17,1.17,0,0,1-.1-1Z" transform="translate(-343.21 -270.92)"/><path class="cls-58" d="M458.91,551.63a1.18,1.18,0,0,1,.6-.74,1.37,1.37,0,0,1,1-.07l3.19.92L463,554.1l-3.19-.92a1.35,1.35,0,0,1-.82-.6,1.12,1.12,0,0,1-.12-1Z" transform="translate(-343.21 -270.92)"/><path class="cls-58" d="M473.64,553.31a.9.9,0,0,0,.12.56.63.63,0,0,0,.35.27,6.55,6.55,0,0,0,.73.2l-.53,2.39-10.86-2.39a1.39,1.39,0,0,1-.92-.58,1.17,1.17,0,0,1-.18-.92,1.19,1.19,0,0,1,.55-.76,1.39,1.39,0,0,1,1.08-.14l7.13,1.57v-.15c0-.05,0-.12,0-.2a8,8,0,0,0-.12-2.07,2.9,2.9,0,0,0-.66-1.31,4.84,4.84,0,0,0-2.62-1.39,6.46,6.46,0,0,0-1.87-.15l.22-2.31a9.75,9.75,0,0,1,2.49.21,7,7,0,0,1,3.63,2,5,5,0,0,1,1.18,2.13,10.22,10.22,0,0,1,.27,3.07Z" transform="translate(-343.21 -270.92)"/></g></g></svg>